# xmcd CD database file
# Copyright (C) 1993-1998 Ti Kan
# 
# Track frame offsets:
#     225
#     14620
#     30376
#     46357
#     65698
#     80830
#     96902
#     112291
#     128798
#     146531
#     171967
#     185108
#     200824
# 
# Disc length: 2922 seconds
# 
# Revision: 1
# Processed by: cddbd v1.4b41PL1 Copyright (c) Steve Scherf et al.
# Submitted via: DiscPlay 4.0.4
# 
DISCID=ca0b670d
DTITLE=Equatronic - Shadowland
DYEAR=1900
DGENRE=
TTITLE0=Nightmare
TTITLE1=Assistant Views
TTITLE2=Follow Your Mind
TTITLE3=Shadowland
TTITLE4=Late Night Show
TTITLE5=Silent Sea
TTITLE6=Close To You
TTITLE7=Searing Eyes
TTITLE8=Awake
TTITLE9=No Tomorrow
TTITLE10=Tango
TTITLE11=Blue
TTITLE12=Far Away
EXTD=
EXTT0=
EXTT1=
EXTT2=
EXTT3=
EXTT4=
EXTT5=
EXTT6=
EXTT7=
EXTT8=
EXTT9=
EXTT10=
EXTT11=
EXTT12=
PLAYORDER=
